<svg version="1.2" xmlns="http://www.w3.org/2000/svg" viewBox="0 0 116 80" width="116" height="80">
	<title>Nytt projekt</title>
	<style>
		.s0 { fill: #ffffff } 
	</style>
	<path id="MÅ." class="s0" aria-label="MÅ."  d="m54.2 78h-10.1l-4.1-36.1-12 24.8-11.9-24.8-4.1 36.1h-10.1l7-56.2h8l11.1 24.7 11.2-24.7h7.9zm36.7 0l-3.9-13.4h-15.9l-3.9 13.4h-9.8l17.1-56.1h9l17.2 56.1zm-17.3-22.3h10.9l-5.5-19.1zm5.4-38.1q-3.4 0-5.5-2.2-2.1-2.3-2.1-5.5 0-3.3 2.1-5.6 2.1-2.3 5.5-2.3 3.4 0 5.4 2.3 2.1 2.3 2.1 5.6 0 3.2-2.1 5.5-2 2.2-5.4 2.2zm0-4.1q1.4 0 2.2-1 0.8-1 0.8-2.6 0-1.6-0.8-2.6-0.8-1.1-2.2-1.1-1.4 0-2.3 1.1-0.8 1-0.8 2.6 0 1.6 0.8 2.6 0.9 1 2.3 1zm24.4 64.6v-10.9h9.8v10.9z"/>
</svg>