<svg version="1.2" xmlns="http://www.w3.org/2000/svg" viewBox="0 0 2255 334" width="1920" height="284">
    <title>logo-svg</title>
    <style>
        .s0 { fill: #000000 } 
        .s1 { fill: #ff69b4 } 
        .logo {
            filter: drop-shadow(5px 5px 8px rgba(0, 0, 0, 0.57));
            mix-blend-mode: multiply;
        }
    </style>
    <path id="work" class="s0 logo" aria-label="work" d="m197.5 34.5l-39.1 86.7-28.3-62.8-10.7-23.9h-0.1l-10.7 23.9-28.3 62.8-39.1-86.7h-21.5l49.8 110.6 10.8 23.9 10.8-23.9 28.3-62.8 28.3 62.8 10.7 23.9 10.8-23.9 49.8-110.6zm116.1 17.8c26.8 0 48.5 21.8 48.5 48.5 0 26.8-21.7 48.6-48.5 48.6-26.7 0-48.5-21.8-48.5-48.6 0-26.7 21.8-48.5 48.5-48.5zm-68.1 48.5c0 37.7 30.5 68.2 68.1 68.2 37.7 0 68.2-30.5 68.2-68.2 0-37.6-30.5-68.1-68.2-68.1-37.6 0-68.1 30.5-68.1 68.1zm260.1-2.1l-2.4-3.9c0.1-0.1 0.3-0.2 0.4-0.2 0.1-0.1 0.1-0.1 0.2-0.2 0.3-0.2 0.7-0.4 1-0.6 0-0.1 0.1-0.1 0.1-0.1 0.4-0.2 0.7-0.5 1.1-0.7 0.8-0.6 1.5-1.2 2.3-1.7 0.2-0.2 0.4-0.4 0.6-0.5 0.3-0.2 0.6-0.5 0.9-0.7 0.4-0.3 0.8-0.7 1.1-1 0.1 0 0.1-0.1 0.2-0.1 0.3-0.3 0.6-0.5 0.9-0.8 0.9-0.8 1.7-1.6 2.6-2.4 9.1-9.1 15.8-20.7 18.6-33.7 1.1-4.8 1.7-9.8 1.7-14.9 0-1.6-0.1-3.2-0.2-4.8h-112.9v136.6h19.6v-63.6h25.3c0.5 0 0.9 0 1.4 0 0.3 0 0.5 0 0.7 0 0.4 0 0.8-0.1 1.2-0.1 0.1 0 0.2 0 0.3 0 0.5 0 1-0.1 1.6-0.1 0 0 0 0 0 0 0.6 0 1.2-0.1 1.7-0.1 0.5-0.1 1-0.1 1.4-0.2 0.2 0 0.4-0.1 0.6-0.1 0.4 0 0.9-0.1 1.3-0.2 0.2 0 0.4 0 0.5 0 0.4-0.1 0.7-0.2 1-0.2 1.2-0.2 2.4-0.4 3.6-0.7 0.5-0.1 1-0.3 1.5-0.4 0.1 0 0.2 0 0.3-0.1 0.4-0.1 0.7-0.2 1.1-0.3 0.1 0 0.2 0 0.2 0l1.1 1.7 39.3 64.4h23zm-19.6-16.9c-6 2.6-12.6 4-19.3 4h-25.3v-33.7h71.5c-2.4 7.4-6.5 14.2-12.1 19.7-4.4 4.3-9.4 7.7-14.8 10zm122.3 11.2v-60.1h-19.7v79.8l18.7-18.7zm33.9 7.8l68.1-68h-27.8l-58 58-16.2 16.1v-0.1l-19.6 19.7v42.4h19.6v-34.2l20-20 54.2 54.2h27.8z"/>
    <path id="x" class="s1 logo" aria-label="x" d="m757.4 293.4l-12.9 17.6h73.2l3.3-4.5 40.1-54.5-36.7-49.6zm258.5 0l-92.6-125.8 85.9-116.7 13-17.6h-73.2l-3.3 4.5-59 80.1-59-80.1-3.3-4.5h-73.3l13 17.6 86 116.7-0.1 0.1 36.6 49.7h0.1l28.2 38.3 37.4 50.8 3.3 4.5h73.3z"/>
    <path id="perience" class="s0 logo" aria-label="perience" d="m1189 211.1c0-19.4-15.2-35.2-34.3-36.2l0.1-0.1h-75.1v136.2h19.6v-63.5h56.6l-0.3-0.2c18.7-1.5 33.4-17.1 33.4-36.2zm-36.2 16.7h-53.5v-33.2h52c0.1-0.1 0.2-0.1 0.3-0.1 0.4 0 0.8 0 1.2 0 9.1 0 16.6 7.5 16.6 16.6 0 9.2-7.5 16.7-16.6 16.7zm98.2 20h87.6v-19.6h-87.6v-23.9h-19.6v106.7h120.4v-19.6h-100.8zm-19.6-73v19.6h120.4v-19.6zm244.5 65.8l-2.3-3.8c0.1-0.1 0.2-0.2 0.4-0.3 0 0 0.1-0.1 0.1-0.1 0.4-0.2 0.7-0.4 1.1-0.7 0 0 0 0 0 0 0.4-0.3 0.8-0.5 1.1-0.8 0.8-0.5 1.6-1.1 2.3-1.7 0.2-0.1 0.5-0.3 0.7-0.5 0.2-0.2 0.5-0.4 0.8-0.7 0.4-0.3 0.8-0.6 1.2-0.9 0-0.1 0.1-0.1 0.1-0.1 0.3-0.3 0.6-0.6 0.9-0.8 0.9-0.8 1.8-1.6 2.6-2.5 9.2-9 15.8-20.6 18.7-33.7 1.1-4.7 1.6-9.7 1.6-14.8 0-1.6 0-3.2-0.1-4.8h-113v136.6h19.7v-63.6h25.3c0.4 0 0.9 0 1.4-0.1 0.2 0 0.4 0 0.7 0 0.4 0 0.8 0 1.1 0 0.1 0 0.2 0 0.3 0 0.6-0.1 1.1-0.1 1.6-0.1 0 0 0 0 0.1 0 0.5-0.1 1.1-0.1 1.7-0.2 0.4 0 0.9-0.1 1.4-0.1 0.2-0.1 0.4-0.1 0.5-0.1 0.5-0.1 0.9-0.1 1.4-0.2 0.1 0 0.3-0.1 0.5-0.1 0.3 0 0.7-0.1 1-0.1 1.2-0.3 2.4-0.5 3.5-0.8 0.5-0.1 1-0.2 1.6-0.3 0.1 0 0.2-0.1 0.3-0.1 0.4-0.1 0.7-0.2 1.1-0.3 0.1 0 0.2 0 0.2 0l1.1 1.8 39.2 64.4h23zm-19.6-16.9c-6 2.6-12.5 3.9-19.3 3.9h-25.3v-33.6h71.6c-2.4 7.4-6.6 14.1-12.2 19.7-4.3 4.3-9.3 7.6-14.8 10zm102.7 87.2v-136.5h19.6v136.5zm19-135.8h-18.3v135.1h18.3zm-19-0.6v136.4h19.6v-136.4zm81.6 73.2h87.6v-19.6h-87.6v-23.9h-19.6v106.7h120.4v-19.6h-100.8zm-19.6-73v19.7h120.4v-19.7zm160.7 136.2h19.6v-75.2l-19.6-19.6zm88.5-136.3v88.2l-88.5-88.4v27.7l19.6 19.7 68.9 68.8 19.6 19.6v-135.6zm123.6 116.6c-23.4 0-43-16.6-47.7-38.7-0.6-3.2-1-6.5-1-10 0-3.3 0.3-6.5 0.9-9.6 4.5-22.3 24.2-39.1 47.8-39.1 20.1 0 37.4 12.3 44.8 29.7h20.8c-8.2-28.5-34.5-49.3-65.6-49.3-34.5 0-63 25.5-67.7 58.7-0.4 3.1-0.6 6.4-0.6 9.6 0 3.4 0.2 6.8 0.7 10 4.8 33 33.3 58.4 67.6 58.4 30.4 0 56.1-19.9 65-47.3h-21.1c-7.9 16.4-24.6 27.6-43.9 27.6zm132.1-43.5h87.6v-19.7h-87.6v-23.9h-19.6v106.8h120.4v-19.7h-100.8zm-19.6-73v19.7h120.4v-19.7z"/>
</svg>